<svg xmlns="http://www.w3.org/2000/svg" width="187.275" height="59.718" viewBox="0 0 187.275 59.718">
  <g id="Grupo_8" data-name="Grupo 8" transform="translate(-348.511 -437.133)">
    <path id="Trazado_169" data-name="Trazado 169" d="M101.942,140.672l2.986-4.029a13.369,13.369,0,0,0-9.988-3.709c-5.857.132-9.577,3.275-9.6,8.089-.02,3.925,2.376,6.446,6.39,7.723,1.914.609,8.706,1.122,8.478,4.215-.161,2.186-1.13,3.22-4.187,3.22a13.3,13.3,0,0,1-8.664-3.465l-3.161,3.746a15.131,15.131,0,0,0,11.364,4.624c6.954-.141,9.968-3.347,10.122-8.04.174-5.3-3.789-7.441-8.741-8.415-2.015-.4-6.15-1.661-6.249-3.84-.087-1.908,2.4-2.987,4.036-2.987a11.465,11.465,0,0,1,7.215,2.868Z" transform="translate(330.908 317.653)" fill="#fff" fill-rule="evenodd"/>
    <path id="Trazado_170" data-name="Trazado 170" d="M108.913,134.493l0,26.768,5.1,0L114,134.5Z" transform="translate(330.289 317.653)" fill="#fff" fill-rule="evenodd"/>
    <path id="Sustracción_33" data-name="Sustracción 33" d="M11.011,21.6a11.047,11.047,0,0,1-7.786-3.163,10.655,10.655,0,0,1,0-15.274,11.163,11.163,0,0,1,15.571,0A10.626,10.626,0,0,1,22.021,10.8,10.919,10.919,0,0,1,11.011,21.6Zm0-16.8a5.825,5.825,0,0,0-5.622,6,5.825,5.825,0,0,0,5.622,6,5.825,5.825,0,0,0,5.622-6A5.825,5.825,0,0,0,11.011,4.8Z" transform="translate(446.612 457.076)" fill="#fff"/>
    <path id="Trazado_167" data-name="Trazado 167" d="M138.226,144.551l2.434.01.027,11.59a5.166,5.166,0,0,0,5.273,5.017,10.853,10.853,0,0,0,5.329-1.012l-.026-4.685c-2.759,1.8-5.249.74-5.252-.54l-.025-10.388,5.29.02.029-4.436L146,140.114V134.6l-5.337-.042v5.565l-2.442.005.006,4.421Z" transform="translate(330.908 317.653)" fill="#fff" fill-rule="evenodd"/>
    <ellipse id="Elipse_80" data-name="Elipse 80" cx="3.3" cy="3.291" rx="3.3" ry="3.291" transform="translate(486.235 448.971)" fill="#fff"/>
    <path id="Trazado_168" data-name="Trazado 168" d="M155.957,140.585l0,20.651,5.427,0-.01-20.645Z" transform="translate(330.908 317.653)" fill="#fff" fill-rule="evenodd"/>
    <path id="Trazado_166" data-name="Trazado 166" d="M167.8,161.138l5.321.043-.01-15.947,4.42,0,6.563,15.687c-.758,2.542-3.732,2-5.262,1.144l-1.969,3.957a8.435,8.435,0,0,0,5.106,1.468,6.771,6.771,0,0,0,6.655-4.548l8.552-22.363-5.439.014-4.966,13.823-5.455-13.822-8.094-.051c-.159-2.392.322-3.361,2.412-3.32a12.93,12.93,0,0,1,2.766.436l-.112-4.472a9.428,9.428,0,0,0-3.944-.663c-4.137-.1-6.491,1.935-6.548,7.846h-2.43l.008,4.844,2.433.048-.008,15.879Z" transform="translate(330.908 317.653)" fill="#fff" fill-rule="evenodd"/>
    <path id="Sustracción_36" data-name="Sustracción 36" d="M41.4,71.235h0a29.905,29.905,0,1,1,16.459-4.966A29.81,29.81,0,0,1,41.4,71.235ZM21.161,38.287a1.633,1.633,0,0,0-1.506.939,1.459,1.459,0,0,0,.558,1.607A31.181,31.181,0,0,1,27.1,49.916a26.26,26.26,0,0,1,2.679,9.716,1.265,1.265,0,0,0,1.352,1.234,1.649,1.649,0,0,0,1.161-.448.858.858,0,0,0,.256-.637c-.316-7.724-3.925-15.032-10.436-21.133A1.361,1.361,0,0,0,21.161,38.287Zm5.991-6.605a2.056,2.056,0,0,0-1.9,1.182,1.837,1.837,0,0,0,.7,2.023,39.241,39.241,0,0,1,8.67,11.435A33.075,33.075,0,0,1,38,58.555a1.592,1.592,0,0,0,1.7,1.552,2.075,2.075,0,0,0,1.462-.564,1.08,1.08,0,0,0,.321-.8c-.4-9.724-4.942-18.924-13.138-26.6A1.713,1.713,0,0,0,27.152,31.681Zm7.073-6.118a2.343,2.343,0,0,0-2.161,1.348,2.094,2.094,0,0,0,.8,2.306,44.733,44.733,0,0,1,9.883,13.035A37.7,37.7,0,0,1,46.593,56.2a1.815,1.815,0,0,0,1.94,1.77,2.365,2.365,0,0,0,1.666-.643,1.232,1.232,0,0,0,.367-.915c-.453-11.084-5.632-21.571-14.977-30.327A1.953,1.953,0,0,0,34.225,25.563Zm7.243-7.187a2.77,2.77,0,0,0-2.554,1.593A2.476,2.476,0,0,0,39.86,22.7,52.9,52.9,0,0,1,51.545,38.107a44.572,44.572,0,0,1,4.547,16.486,2.147,2.147,0,0,0,2.294,2.093,2.8,2.8,0,0,0,1.969-.76,1.457,1.457,0,0,0,.433-1.082c-.537-13.1-6.659-25.5-17.707-35.855A2.309,2.309,0,0,0,41.468,18.376Z" transform="translate(336.997 425.616)" fill="#fff"/>
    <path id="Sustracción_34" data-name="Sustracción 34" d="M3.368,6.735A3.367,3.367,0,1,1,6.735,3.368,3.371,3.371,0,0,1,3.368,6.735ZM3.357.527A2.815,2.815,0,1,0,6.173,3.342,2.818,2.818,0,0,0,3.357.527Z" transform="translate(529.052 451.076)" fill="#fff"/>
    <path id="Sustracción_35" data-name="Sustracción 35" d="M2.239,3.327h0l-.693-1.1-.874,0,0,1.085L0,3.324.017,0,2.2.017c.44,0,.752.552.757,1.042a1.11,1.11,0,0,1-.267.779.6.6,0,0,1-.442.181H2.235L3,3.314l-.756.013ZM.659.677l0,.883,1.109.005h.006c.2,0,.43-.05.436-.439A.437.437,0,0,0,2.106.8a.467.467,0,0,0-.339-.12Z" transform="translate(530.99 452.587)" fill="#fff"/>
  </g>
</svg>
